<svg xmlns="http://www.w3.org/2000/svg" viewBox="0 0 496 496" id="svg-47b6" fill="#0049ff" class="u-svg-content" ><path d="m344 96h16v16h-16zm0 0" /><path d="m456.734375 173.449219c3.601563 1.671875 7.601563 2.550781 11.816406 2.550781 15.136719 0 27.449219-12.3125 27.449219-27.449219 0-10.765625-6.34375-20.582031-16.160156-25.007812l-95.832032-43.277344c-7.289062-9.808594-18.871093-16.265625-32.007812-16.265625-1.121094 0-2.167969.238281-3.273438.328125l-100.726562-45.488281v-2.839844c0-8.824219-7.175781-16-16-16h-48c-8.824219 0-16 7.175781-16 16v8h-35.390625c-6.195313-14.105469-20.25-24-36.609375-24-22.054688 0-40 17.945312-40 40v28.992188l-56 64v43.007812h192v-43.007812l-53.367188-60.992188h29.367188v8c0 8.824219 7.175781 16 16 16h48c8.824219 0 16-7.175781 16-16v-3.464844l64.238281 29.824219c.722657 12.03125 6.707031 22.578125 15.761719 29.433594v296.207031h-72c-17.648438 0-32 14.351562-32 32s14.351562 32 32 32 32-14.351562 32-32c0-5.855469-1.695312-11.273438-4.449219-16h44.449219c8.824219 0 16-7.175781 16-16v-112h16v112c0 8.824219 7.175781 16 16 16h44.449219c-2.753907 4.726562-4.449219 10.144531-4.449219 16 0 17.648438 14.351562 32 32 32s32-14.351562 32-32-14.351562-32-32-32h-72v-296.039062zm-360.734375-157.449219c13.230469 0 24 10.769531 24 24v24h-48v-24c0-13.230469 10.769531-24 24-24zm-80 144v-16h112v-16h-102.367188l42-48h56.734376l42 48h-22.367188v16h32v16zm120-104v-16h32v16zm136 408c0 8.824219-7.175781 16-16 16s-16-7.175781-16-16 7.175781-16 16-16 16 7.175781 16 16zm192 0c0 8.824219-7.175781 16-16 16s-16-7.175781-16-16 7.175781-16 16-16 16 7.175781 16 16zm9.265625-325.871094c4.09375 1.839844 6.734375 5.933594 6.734375 10.421875 0 6.3125-5.136719 11.449219-11.703125 11.449219-1.65625 0-3.328125-.367188-4.832031-1.0625l-76.671875-35.601562c3.214843-5.761719 5.207031-12.289063 5.207031-19.335938 0-.929688-.207031-1.792969-.273438-2.703125zm-97.265625-34.128906c0 13.230469-10.769531 24-24 24s-24-10.769531-24-24 10.769531-24 24-24 24 10.769531 24 24zm-192-24v-64h48l.007812 64zm130.703125 9.863281-66.703125-30.96875v-22.511719l79.753906 36.015626c-5.832031 4.496093-10.386718 10.480468-13.050781 17.464843zm37.296875 54.136719c2.734375 0 5.414062-.28125 8-.808594v128.808594h-16v-128.808594c2.585938.527344 5.265625.808594 8 .808594zm-8 160v-16h16v16zm0 0"/><path d="m88 208h16v48h-16zm0 0"/><path d="m88 272h16v16h-16zm0 0"/><path d="m118.625 201.941406 11.3125-11.316406 33.941406 33.941406-11.3125 11.3125zm0 0"/><path d="m163.886719 247.195312 11.3125-11.3125 11.3125 11.3125-11.3125 11.3125zm0 0"/><path d="m28.117188 224.570312 33.941406-33.941406 11.3125 11.3125-33.941406 33.941406zm0 0"/><path d="m5.496094 247.195312 11.3125-11.3125 11.3125 11.3125-11.3125 11.3125zm0 0"/></svg>